<svg width="100" height="30" viewBox="0 0 100 30" fill="none" xmlns="http://www.w3.org/2000/svg">
<rect width="100" height="30" rx="15" fill="#FFA500"/>
<path d="M94.4244 15.4243C94.6587 15.1899 94.6587 14.8101 94.4244 14.5757L90.606 10.7574C90.3717 10.523 89.9918 10.523 89.7575 10.7574C89.5231 10.9917 89.5231 11.3716 89.7575 11.6059L93.1516 15L89.7575 18.3941C89.5231 18.6284 89.5231 19.0083 89.7575 19.2426C89.9918 19.477 90.3717 19.477 90.606 19.2426L94.4244 15.4243ZM94 15.6H94.0001V14.4H94V15.6Z" fill="white"/>
<path d="M24.16 20.195C23.5057 20.195 22.9163 20.0867 22.392 19.87C21.872 19.649 21.4408 19.337 21.0985 18.934C20.7605 18.531 20.5395 18.0522 20.4355 17.4975L21.4105 17.335C21.5665 17.9417 21.8958 18.4183 22.3985 18.765C22.9012 19.1073 23.5013 19.2785 24.199 19.2785C24.6583 19.2785 25.07 19.207 25.434 19.064C25.798 18.9167 26.084 18.7087 26.292 18.44C26.5 18.1713 26.604 17.8528 26.604 17.4845C26.604 17.2418 26.5607 17.036 26.474 16.867C26.3873 16.6937 26.2725 16.5507 26.1295 16.438C25.9865 16.3253 25.8305 16.2322 25.6615 16.1585C25.4925 16.0805 25.3278 16.0177 25.1675 15.97L22.795 15.2615C22.509 15.1792 22.2447 15.0752 22.002 14.9495C21.7593 14.8195 21.547 14.6657 21.365 14.488C21.1873 14.306 21.0487 14.0937 20.949 13.851C20.8493 13.6083 20.7995 13.331 20.7995 13.019C20.7995 12.4903 20.9382 12.0332 21.2155 11.6475C21.4928 11.2618 21.872 10.965 22.353 10.757C22.834 10.549 23.3822 10.4472 23.9975 10.4515C24.6215 10.4515 25.1783 10.562 25.668 10.783C26.162 11.004 26.5693 11.3203 26.89 11.732C27.2107 12.1393 27.423 12.6225 27.527 13.1815L26.526 13.3635C26.461 12.9562 26.3115 12.603 26.0775 12.304C25.8435 12.005 25.5445 11.7753 25.1805 11.615C24.8208 11.4503 24.4243 11.3658 23.991 11.3615C23.5707 11.3615 23.1958 11.433 22.8665 11.576C22.5415 11.7147 22.2837 11.9053 22.093 12.148C21.9023 12.3907 21.807 12.668 21.807 12.98C21.807 13.2963 21.8937 13.5498 22.067 13.7405C22.2447 13.9312 22.4613 14.0807 22.717 14.189C22.977 14.2973 23.2283 14.3862 23.471 14.4555L25.304 14.995C25.4947 15.047 25.7178 15.1228 25.9735 15.2225C26.2335 15.3178 26.4848 15.4565 26.7275 15.6385C26.9745 15.8162 27.1782 16.0502 27.3385 16.3405C27.4988 16.6308 27.579 16.9992 27.579 17.4455C27.579 17.8788 27.4923 18.2667 27.319 18.609C27.15 18.9513 26.9095 19.2395 26.5975 19.4735C26.2898 19.7075 25.928 19.8852 25.512 20.0065C25.1003 20.1322 24.6497 20.195 24.16 20.195ZM31.8912 20.195C31.2066 20.195 30.6129 20.0433 30.1102 19.74C29.6119 19.4367 29.2241 19.0098 28.9467 18.4595C28.6694 17.9092 28.5307 17.2635 28.5307 16.5225C28.5307 15.7555 28.6672 15.0925 28.9402 14.5335C29.2132 13.9745 29.5967 13.5433 30.0907 13.24C30.5891 12.9367 31.1762 12.785 31.8522 12.785C32.5456 12.785 33.1371 12.9453 33.6267 13.266C34.1164 13.5823 34.4869 14.0373 34.7382 14.631C34.9896 15.2247 35.1044 15.9332 35.0827 16.7565H34.1077V16.4185C34.0904 15.5085 33.8932 14.8217 33.5162 14.358C33.1436 13.8943 32.5976 13.6625 31.8782 13.6625C31.1242 13.6625 30.5457 13.9073 30.1427 14.397C29.7441 14.8867 29.5447 15.5843 29.5447 16.49C29.5447 17.374 29.7441 18.0608 30.1427 18.5505C30.5457 19.0358 31.1156 19.2785 31.8522 19.2785C32.3549 19.2785 32.7926 19.1637 33.1652 18.934C33.5422 18.7 33.8391 18.3642 34.0557 17.9265L34.9462 18.271C34.6689 18.882 34.2594 19.3565 33.7177 19.6945C33.1804 20.0282 32.5716 20.195 31.8912 20.195ZM29.2067 16.7565V15.957H34.5692V16.7565H29.2067ZM36.5252 20V12.98H37.3832V14.67L37.2142 14.449C37.2922 14.241 37.3941 14.0503 37.5197 13.877C37.6454 13.6993 37.7819 13.5542 37.9292 13.4415C38.1112 13.2812 38.3236 13.1598 38.5662 13.0775C38.8089 12.9908 39.0537 12.941 39.3007 12.928C39.5477 12.9107 39.7731 12.928 39.9767 12.98V13.877C39.7211 13.812 39.4416 13.7968 39.1382 13.8315C38.8349 13.8662 38.5554 13.9875 38.2997 14.1955C38.0657 14.3775 37.8902 14.5963 37.7732 14.852C37.6562 15.1033 37.5782 15.372 37.5392 15.658C37.5002 15.9397 37.4807 16.2192 37.4807 16.4965V20H36.5252ZM45.0318 20C44.6375 20.0823 44.2475 20.1148 43.8618 20.0975C43.4805 20.0802 43.1381 19.9978 42.8348 19.8505C42.5358 19.7032 42.3083 19.4735 42.1523 19.1615C42.0266 18.9015 41.9573 18.6393 41.9443 18.375C41.9356 18.1063 41.9313 17.8008 41.9313 17.4585V11.03H42.8803V17.4195C42.8803 17.7142 42.8825 17.9612 42.8868 18.1605C42.8955 18.3555 42.941 18.5288 43.0233 18.6805C43.1793 18.9708 43.4263 19.1442 43.7643 19.2005C44.1066 19.2568 44.5291 19.2438 45.0318 19.1615V20ZM40.4298 13.799V12.98H45.0318V13.799H40.4298ZM46.5449 11.6475V10.575H47.5004V11.6475H46.5449ZM46.5449 20V12.98H47.5004V20H46.5449ZM50.1446 20V12.46C50.1446 12.278 50.1532 12.0982 50.1706 11.9205C50.1922 11.7428 50.2334 11.5738 50.2941 11.4135C50.3547 11.2488 50.4501 11.0972 50.5801 10.9585C50.7231 10.8025 50.8791 10.6898 51.0481 10.6205C51.2171 10.5468 51.3926 10.4992 51.5746 10.4775C51.7609 10.4558 51.9429 10.445 52.1206 10.445H53.0176V11.251H52.1856C51.8216 11.251 51.5486 11.3398 51.3666 11.5175C51.1889 11.6952 51.1001 11.9747 51.1001 12.356V20H50.1446ZM48.9291 13.799V12.98H53.0176V13.799H48.9291ZM54.3826 11.6475V10.575H55.3381V11.6475H54.3826ZM54.3826 20V12.98H55.3381V20H54.3826ZM57.2756 20L57.2821 10.64H58.2441V16.36L61.3771 12.98H62.6511L59.3621 16.49L63.0801 20H61.6891L58.2441 16.62V20H57.2756ZM65.7398 20.195C65.2111 20.195 64.767 20.0997 64.4073 19.909C64.052 19.7183 63.7855 19.4648 63.6078 19.1485C63.4301 18.8322 63.3413 18.4877 63.3413 18.115C63.3413 17.7337 63.4171 17.4087 63.5688 17.14C63.7248 16.867 63.935 16.6438 64.1993 16.4705C64.468 16.2972 64.7778 16.165 65.1288 16.074C65.4841 15.9873 65.8763 15.9115 66.3053 15.8465C66.7386 15.7772 67.1611 15.7187 67.5728 15.671C67.9888 15.619 68.3528 15.5692 68.6648 15.5215L68.3268 15.7295C68.3398 15.0362 68.2055 14.5227 67.9238 14.189C67.6421 13.8553 67.1525 13.6885 66.4548 13.6885C65.9738 13.6885 65.5665 13.7968 65.2328 14.0135C64.9035 14.2302 64.6716 14.5725 64.5373 15.0405L63.6078 14.7675C63.7681 14.1392 64.091 13.6517 64.5763 13.305C65.0616 12.9583 65.6921 12.785 66.4678 12.785C67.1091 12.785 67.653 12.9063 68.0993 13.149C68.55 13.3873 68.8685 13.734 69.0548 14.189C69.1415 14.3927 69.1978 14.6202 69.2238 14.8715C69.2498 15.1228 69.2628 15.3785 69.2628 15.6385V20H68.4113V18.2385L68.6583 18.3425C68.42 18.9448 68.0495 19.4042 67.5468 19.7205C67.0441 20.0368 66.4418 20.195 65.7398 20.195ZM65.8503 19.3695C66.2966 19.3695 66.6866 19.2893 67.0203 19.129C67.354 18.9687 67.6226 18.7498 67.8263 18.4725C68.03 18.1908 68.1621 17.8745 68.2228 17.5235C68.2748 17.2982 68.303 17.0512 68.3073 16.7825C68.3116 16.5095 68.3138 16.3058 68.3138 16.1715L68.6778 16.36C68.3528 16.4033 67.9996 16.4467 67.6183 16.49C67.2413 16.5333 66.8686 16.5832 66.5003 16.6395C66.1363 16.6958 65.807 16.763 65.5123 16.841C65.313 16.8973 65.1201 16.9775 64.9338 17.0815C64.7475 17.1812 64.5936 17.3155 64.4723 17.4845C64.3553 17.6535 64.2968 17.8637 64.2968 18.115C64.2968 18.3187 64.3466 18.5158 64.4463 18.7065C64.5503 18.8972 64.715 19.0553 64.9403 19.181C65.17 19.3067 65.4733 19.3695 65.8503 19.3695ZM71.0849 20V10.445H72.0404V20H71.0849ZM75.9976 20.195C75.4689 20.195 75.0248 20.0997 74.6651 19.909C74.3098 19.7183 74.0433 19.4648 73.8656 19.1485C73.6879 18.8322 73.5991 18.4877 73.5991 18.115C73.5991 17.7337 73.6749 17.4087 73.8266 17.14C73.9826 16.867 74.1928 16.6438 74.4571 16.4705C74.7258 16.2972 75.0356 16.165 75.3866 16.074C75.7419 15.9873 76.1341 15.9115 76.5631 15.8465C76.9964 15.7772 77.4189 15.7187 77.8306 15.671C78.2466 15.619 78.6106 15.5692 78.9226 15.5215L78.5846 15.7295C78.5976 15.0362 78.4633 14.5227 78.1816 14.189C77.8999 13.8553 77.4103 13.6885 76.7126 13.6885C76.2316 13.6885 75.8243 13.7968 75.4906 14.0135C75.1613 14.2302 74.9294 14.5725 74.7951 15.0405L73.8656 14.7675C74.0259 14.1392 74.3488 13.6517 74.8341 13.305C75.3194 12.9583 75.9499 12.785 76.7256 12.785C77.3669 12.785 77.9108 12.9063 78.3571 13.149C78.8078 13.3873 79.1263 13.734 79.3126 14.189C79.3993 14.3927 79.4556 14.6202 79.4816 14.8715C79.5076 15.1228 79.5206 15.3785 79.5206 15.6385V20H78.6691V18.2385L78.9161 18.3425C78.6778 18.9448 78.3073 19.4042 77.8046 19.7205C77.3019 20.0368 76.6996 20.195 75.9976 20.195ZM76.1081 19.3695C76.5544 19.3695 76.9444 19.2893 77.2781 19.129C77.6118 18.9687 77.8804 18.7498 78.0841 18.4725C78.2878 18.1908 78.4199 17.8745 78.4806 17.5235C78.5326 17.2982 78.5608 17.0512 78.5651 16.7825C78.5694 16.5095 78.5716 16.3058 78.5716 16.1715L78.9356 16.36C78.6106 16.4033 78.2574 16.4467 77.8761 16.49C77.4991 16.5333 77.1264 16.5832 76.7581 16.6395C76.3941 16.6958 76.0648 16.763 75.7701 16.841C75.5708 16.8973 75.3779 16.9775 75.1916 17.0815C75.0053 17.1812 74.8514 17.3155 74.7301 17.4845C74.6131 17.6535 74.5546 17.8637 74.5546 18.115C74.5546 18.3187 74.6044 18.5158 74.7041 18.7065C74.8081 18.8972 74.9728 19.0553 75.1981 19.181C75.4278 19.3067 75.7311 19.3695 76.1081 19.3695ZM81.2127 20V12.98H82.0707V14.67L81.9017 14.449C81.9797 14.241 82.0816 14.0503 82.2072 13.877C82.3329 13.6993 82.4694 13.5542 82.6167 13.4415C82.7987 13.2812 83.0111 13.1598 83.2537 13.0775C83.4964 12.9908 83.7412 12.941 83.9882 12.928C84.2352 12.9107 84.4606 12.928 84.6642 12.98V13.877C84.4086 13.812 84.1291 13.7968 83.8257 13.8315C83.5224 13.8662 83.2429 13.9875 82.9872 14.1955C82.7532 14.3775 82.5777 14.5963 82.4607 14.852C82.3437 15.1033 82.2657 15.372 82.2267 15.658C82.1877 15.9397 82.1682 16.2192 82.1682 16.4965V20H81.2127Z" fill="white"/>
<path d="M9.33328 22.1067V18.1067C11.3694 18.8543 12.5384 18.86 14.6666 18.1067V22.1067C14.6666 22.7733 12.8449 20.7628 11.9999 20.7733C11.155 20.7839 9.33325 22.7733 9.33328 22.1067Z" stroke="white" stroke-width="0.8"/>
<circle cx="12" cy="13" r="5.6" stroke="white" stroke-width="0.8"/>
<path d="M9.33333 13L11.1111 15L14.6667 11" stroke="white" stroke-width="0.8" stroke-linecap="round" stroke-linejoin="round"/>
</svg>
